<svg width="48" height="48" viewBox="0 0 48 48" fill="none" xmlns="http://www.w3.org/2000/svg">
<g id="system-launcher">
<path id="Rectangle 426" d="M4.5 7.5C4.5 5.84315 5.84315 4.5 7.5 4.5H19.5C21.1569 4.5 22.5 5.84315 22.5 7.5V19.5C22.5 21.1569 21.1569 22.5 19.5 22.5H7.5C5.84315 22.5 4.5 21.1569 4.5 19.5V7.5Z" fill="url(#paint0_linear_6041_20884)"/>
<path id="Rectangle 430" d="M4.5 28.5C4.5 26.8431 5.84315 25.5 7.5 25.5H19.5C21.1569 25.5 22.5 26.8431 22.5 28.5V40.5C22.5 42.1569 21.1569 43.5 19.5 43.5H7.5C5.84315 43.5 4.5 42.1569 4.5 40.5V28.5Z" fill="url(#paint1_linear_6041_20884)"/>
<path id="Rectangle 428" d="M25.5 7.5C25.5 5.84315 26.8431 4.5 28.5 4.5H40.5C42.1569 4.5 43.5 5.84315 43.5 7.5V19.5C43.5 21.1569 42.1569 22.5 40.5 22.5H28.5C26.8431 22.5 25.5 21.1569 25.5 19.5V7.5Z" fill="url(#paint2_linear_6041_20884)"/>
<path id="Rectangle 434" d="M31.4812 30L34.9283 33.4471L33.0721 35.3033L29.625 31.8562L31.4812 30Z" fill="#9E9E9E"/>
<path id="Vector" d="M34.5 24C34.5 29.799 29.799 34.5 24 34.5C18.201 34.5 13.5 29.799 13.5 24C13.5 18.201 18.201 13.5 24 13.5C29.799 13.5 34.5 18.201 34.5 24Z" fill="white"/>
<path id="Vector_2" d="M32.4375 24C32.4375 28.6599 28.6599 32.4375 24 32.4375C19.3401 32.4375 15.5625 28.6599 15.5625 24C15.5625 19.3401 19.3401 15.5625 24 15.5625C28.6599 15.5625 32.4375 19.3401 32.4375 24Z" fill="url(#paint3_linear_6041_20884)"/>
<path id="Subtract" d="M20.4375 31.5001C25.4081 31.5001 29.4375 27.4706 29.4375 22.5001C29.4375 19.9378 28.3668 17.6256 26.6484 15.9866C30.0109 17.0973 32.4374 20.2653 32.4374 24C32.4374 28.6599 28.6598 32.4375 23.9999 32.4375C22.601 32.4375 21.2817 32.0971 20.1201 31.4946C20.2255 31.4982 20.3313 31.5001 20.4375 31.5001Z" fill="#BE6DEE"/>
<path id="Subtract_2" d="M20.0624 30.4687C20.8696 30.9172 17.9999 27.3749 17.9999 24.1874C17.9999 20.4374 20.1561 17.8126 19.5936 17.9062C19.0543 17.996 16.4061 20.5312 16.3123 24.1874C16.2353 27.188 18.3749 29.5313 20.0624 30.4687Z" fill="#E9C9FF"/>
<path id="Vector_3" d="M35.0477 32.7491C35.2118 32.5832 35.4772 32.5836 35.6408 32.7503L42.2651 39.5043C43.1641 40.4209 43.1613 41.9042 42.2587 42.8173C41.3561 43.7301 39.8957 43.7273 38.9967 42.8106L32.3722 36.0566C32.2089 35.8899 32.2093 35.6203 32.3733 35.4543L35.0477 32.7491Z" fill="#FFAD00"/>
</g>
<defs>
<linearGradient id="paint0_linear_6041_20884" x1="4.5" y1="22.5" x2="22.8708" y2="4.88671" gradientUnits="userSpaceOnUse">
<stop stop-color="#229FAD"/>
<stop offset="1" stop-color="#49BAC8"/>
</linearGradient>
<linearGradient id="paint1_linear_6041_20884" x1="4.5" y1="43.5" x2="22.8708" y2="25.8867" gradientUnits="userSpaceOnUse">
<stop stop-color="#229FAD"/>
<stop offset="1" stop-color="#49BAC8"/>
</linearGradient>
<linearGradient id="paint2_linear_6041_20884" x1="25.5" y1="22.5" x2="43.8708" y2="4.88671" gradientUnits="userSpaceOnUse">
<stop stop-color="#229FAD"/>
<stop offset="1" stop-color="#49BAC8"/>
</linearGradient>
<linearGradient id="paint3_linear_6041_20884" x1="32.4375" y1="15.5625" x2="15.5625" y2="32.4375" gradientUnits="userSpaceOnUse">
<stop stop-color="#CF7DFF"/>
<stop offset="1" stop-color="#BE6DEE"/>
</linearGradient>
</defs>
</svg>
